<?xml version="1.0" encoding="utf-8"?>
<!-- Generator: Adobe Illustrator 16.0.0, SVG Export Plug-In . SVG Version: 6.00 Build 0)  -->
<!DOCTYPE svg PUBLIC "-//W3C//DTD SVG 1.1//EN" "http://www.w3.org/Graphics/SVG/1.1/DTD/svg11.dtd">
<svg version="1.1" id="Layer_1" xmlns="http://www.w3.org/2000/svg" xmlns:xlink="http://www.w3.org/1999/xlink" x="0px" y="0px"
	 width="1080px" height="1080px" viewBox="0 0 1080 1080" enable-background="new 0 0 1080 1080" xml:space="preserve">
<g>
	<path fill="#00ADEF" d="M927.035,239.138c-3.426,23.21-7.641,44.703-12.729,64.792c37.197,63.115,58.555,136.631,58.555,215.043
		c0,0.579-0.008,1.155-0.01,1.733h73.258c0.002-0.578,0.012-1.154,0.012-1.733c0-120.528-43.037-231.192-114.547-317.439
		C930.459,213.669,928.953,226.171,927.035,239.138z"/>
	<path fill="#00ADEF" d="M153.64,260.195c14.438,5.322,29.237,11.265,44.637,17.918C274.986,167.062,403.16,94.154,548.045,94.154
		c92.457,0,178.107,29.696,247.924,80.043c13.465-19.981,27.889-39.771,44.949-57.873c-82.252-59.993-183.502-95.428-292.873-95.428
		c-176.17,0-331.27,91.938-419.842,230.353C136.879,254.085,145.356,257.14,153.64,260.195z"/>
	<path fill="#00ADEF" d="M123.225,518.973c0-21.397,1.598-42.429,4.666-62.985c-10.302-9.632-20.26-19.778-29.85-30.438
		c-9.65-10.732-20.264-22.99-30.843-36.665c-11.234,41.484-17.231,85.1-17.231,130.089c0,0.579,0.009,1.155,0.011,1.733h73.259
		C123.235,520.128,123.225,519.552,123.225,518.973z"/>
	<path fill="#00ADEF" d="M85.239,651.328c12.053,5.624,26.344,7.71,42.873,6.255c6.521-0.573,13.311-1.965,20.369-4.172
		c7.057-2.208,13.486-5.748,19.291-10.621c7.17-6.07,11.807-13.589,13.906-22.556c1.236-5.265,1.571-11.753,1.007-19.465
		l-4.713-53.551l-124.305,10.94l4.714,53.551C60.034,630.487,68.985,643.693,85.239,651.328z M158.602,574.334l2.108,23.95
		c1.039,11.807-1.655,19.99-8.08,24.55c-6.427,4.56-15.964,7.396-28.613,8.51c-9.165,0.807-17.181,0.18-24.046-1.878
		c-12.514-3.772-19.309-11.785-20.388-24.041l-2.108-23.95L158.602,574.334z"/>
	
		<rect x="175.344" y="660.25" transform="matrix(-0.9579 0.287 -0.287 -0.9579 557.9202 1263.0149)" fill="#00ADEF" width="22.097" height="24.297"/>
	
		<rect x="108.758" y="645.878" transform="matrix(0.287 0.9579 -0.9579 0.287 749.1196 377.6061)" fill="#00ADEF" width="24.297" height="92.276"/>
	<path fill="#00ADEF" d="M125.237,806.436c8.297,3.498,16.639,3.191,25.023-0.92c6.096-2.99,10.137-7.603,12.121-13.837
		c1.908-6.261,1.763-14.144-0.438-23.647c-3.494-14.313-5.18-22.819-5.055-25.521c-0.1-2.736,0.97-4.651,3.203-5.747
		c1.777-0.871,3.818-0.629,6.125,0.73c2.307,1.358,4.618,4.399,6.936,9.124c2.815,5.741,3.501,10.446,2.059,14.117
		c-0.82,1.977-2.396,3.726-4.726,5.247l10.593,21.6c9.663-5.932,14.962-13.165,15.901-21.697c0.94-8.532-1.125-17.963-6.191-28.293
		c-5.323-10.857-12.275-17.894-20.854-21.109c-8.579-3.217-16.795-2.898-24.649,0.953c-6.281,3.081-10.148,7.366-11.598,12.854
		c-1.498,5.512-1.077,13.508,1.264,23.99c3.275,14.541,4.772,23.137,4.493,25.787c-0.188,2.553-1.397,4.376-3.626,5.469
		c-2.322,1.14-4.68,0.735-7.074-1.21s-4.637-5.052-6.729-9.319c-3.56-7.256-4.678-12.878-3.353-16.863
		c0.738-2.25,2.756-4.468,6.057-6.652l-10.772-21.967c-8.513,4.176-13.997,10.715-16.45,19.618s-0.484,19.874,5.91,32.91
		C109.663,794.811,116.94,802.938,125.237,806.436z"/>
	<path fill="#00ADEF" d="M179.142,847.308l37.985-27.855l8.861,12.083l13.857-10.163l-8.861-12.083l20.754-15.22l-14.119-19.252
		l-20.752,15.22l-7.609-10.376l-13.86,10.163l7.61,10.376l-45.807,33.594c-4.642,3.404-7.278,7.017-7.905,10.837
		c-0.963,5.464,1.478,12.178,7.318,20.143c0.534,0.728,1.107,1.462,1.721,2.203l7.1,8.966l16.111-11.815
		c-0.514-0.604-1.023-1.228-1.529-1.87c-0.508-0.644-0.977-1.262-1.41-1.853c-2.904-3.959-4.277-6.593-4.119-7.897
		C174.645,851.2,176.196,849.469,179.142,847.308z"/>
	<path fill="#00ADEF" d="M231.637,879.646c5.42-5.338,10.088-8.627,14.002-9.867c6.971-2.19,13.861,0.172,20.674,7.089
		c0.514,0.522,1.166,1.228,1.959,2.11c0.791,0.885,1.66,1.929,2.609,3.134l16.178-15.929c-0.717-0.8-1.176-1.319-1.373-1.559
		c-0.201-0.24-0.459-0.521-0.775-0.843c-5.068-5.147-10.426-8.109-16.07-8.887c-3.422-0.514-8.453-0.113-15.098,1.202l10.416-10.255
		l-16.156-16.408l-65.753,64.743l17.048,17.313L231.637,879.646z"/>
	<path fill="#00ADEF" d="M314.359,972.936l23.908-34.57c6.404-9.258,7.521-17.794,3.357-25.608
		c-4.168-7.815-10.42-14.606-18.756-20.372c-12.773-8.834-24.096-11.724-33.967-8.669c-6.252,1.989-11.883,6.158-16.893,12.506
		l19.205,13.282c2.416-2.507,4.895-4.111,7.432-4.811c3.498-0.897,7.584,0.271,12.26,3.504c4.166,2.882,6.926,5.645,8.281,8.287
		s0.986,5.48-1.111,8.511c-1.721,2.489-4.406,3.341-8.053,2.558c-2.049-0.413-5.063-1.664-9.045-3.749l-7.355-3.782
		c-8.336-4.32-15.264-6.705-20.785-7.154c-10.092-0.789-18.371,3.492-24.838,12.843c-4.963,7.177-6.555,14.274-4.77,21.293
		c1.787,7.017,6.121,12.908,13.01,17.672c5.371,3.716,11.039,5.816,17,6.303c5.012,0.378,9.908,0.026,14.697-1.055
		c-1.049,1.813-1.922,3.475-2.619,4.982c-0.697,1.509-1.271,3.238-1.723,5.19l21.707,15.013l2.021-2.925
		c-0.883-1.499-1.33-2.938-1.34-4.313c-0.01-1.374,0.813-3.406,2.465-6.094C310.725,978.289,312.695,975.342,314.359,972.936z
		 M286.395,958.704c-5.309,0.008-10.094-1.462-14.354-4.407c-2.686-1.857-4.441-4.19-5.271-7s-0.068-5.911,2.281-9.309
		c2.639-3.815,6.107-5.579,10.41-5.287c2.539,0.175,6.143,1.326,10.811,3.453l5.025,2.268c2.5,1.151,4.545,1.94,6.139,2.367
		s3.273,0.705,5.039,0.833l-5.068,7.328C296.707,955.445,291.705,958.696,286.395,958.704z"/>
	<path fill="#00ADEF" d="M368.105,974.777c2.646-6.623,5.502-11.639,8.563-15.05c5.775-6.407,12.428-8.107,19.955-5.099
		c5.281,2.111,8.477,5.417,9.588,9.918c0.686,3.287,0.592,6.631-0.281,10.031l23.033,9.207c3.621-12.714,2.973-22.849-1.947-30.408
		c-4.918-7.558-12.754-13.487-23.51-17.786c-12.641-5.054-24.188-4.936-34.635,0.354c-10.451,5.291-18.613,15.286-24.49,29.988
		c-5.225,13.071-6.225,25.001-2.992,35.791c3.23,10.79,11.744,18.941,25.541,24.457c13.795,5.515,26.166,4.777,37.115-2.212
		c6.836-4.317,11.879-9.777,15.129-16.381l-22.955-9.176c-2.273,4.319-5.072,7.454-8.398,9.406
		c-3.328,1.952-7.605,1.884-12.832-0.206c-7.371-2.947-10.961-8.527-10.77-16.742C364.289,986.448,365.584,981.084,368.105,974.777z
		"/>
	<path fill="#00ADEF" d="M476.799,977.365l14.691,2.948l3.381-16.85l-14.691-2.948l5.064-25.232l-23.406-4.698l-5.064,25.232
		l-12.617-2.531l-3.381,16.849l12.615,2.532l-11.178,55.694c-1.133,5.645-0.643,10.09,1.469,13.333
		c2.975,4.685,9.303,7.998,18.986,9.941c0.885,0.178,1.805,0.332,2.756,0.467l11.289,1.834l3.932-19.589
		c-0.787-0.1-1.584-0.216-2.391-0.35c-0.809-0.133-1.572-0.272-2.291-0.417c-4.814-0.966-7.604-1.984-8.367-3.056
		c-0.764-1.07-0.785-3.396-0.066-6.978L476.799,977.365z"/>
	
		<rect x="503.648" y="964.334" transform="matrix(0.9971 0.0756 -0.0756 0.9971 77.867 -36.1022)" fill="#00ADEF" width="24.298" height="92.276"/>
	<path fill="#00ADEF" d="M626.824,971.86c-8.697-8.94-20.93-12.639-36.699-11.092c-15.854,1.555-27.199,7.565-34.033,18.028
		c-6.834,10.465-9.604,22.313-8.305,35.546c1.324,13.504,6.35,24.67,15.076,33.5s21.018,12.467,36.873,10.912
		c15.768-1.547,27.055-7.495,33.859-17.85c6.801-10.352,9.543-22.279,8.217-35.784C640.516,991.889,635.518,980.802,626.824,971.86z
		 M613.084,1029.523c-3.264,5.382-8.4,8.416-15.408,9.104s-12.65-1.29-16.926-5.933c-4.275-4.642-6.865-11.583-7.771-20.822
		s0.289-16.536,3.582-21.893c3.295-5.356,8.447-8.379,15.455-9.066s12.635,1.278,16.879,5.896c4.246,4.617,6.82,11.545,7.727,20.783
		C617.527,1016.831,616.348,1024.143,613.084,1029.523z"/>
	<path fill="#00ADEF" d="M719.227,936.001c-7.402-2.647-15.594-2.357-24.574,0.869c-7.188,2.583-12.49,6.483-15.904,11.7
		c-1.898,2.919-3.502,7.152-4.814,12.702l-4.594-12.788l-21.75,7.815l31.146,86.681l22.467-8.072l-16.852-46.898
		c-1.924-5.352-2.76-10.018-2.506-13.999c0.533-7.551,4.658-12.714,12.379-15.487c6.283-2.258,11.344-1.563,15.178,2.085
		c2.102,1.997,3.971,5.275,5.607,9.833l18.938,52.7l23.264-8.359l-21.012-58.478C732.285,945.417,726.629,938.648,719.227,936.001z"
		/>
	<path fill="#00ADEF" d="M801.375,923.901c-13.773,5.231-22.008,7.952-24.703,8.162c-2.703,0.435-4.736-0.39-6.098-2.472
		c-1.084-1.656-1.096-3.712-0.031-6.168s3.797-5.125,8.201-8.007c5.35-3.501,9.936-4.762,13.756-3.782
		c2.063,0.57,3.992,1.918,5.789,4.042l20.129-13.174c-7.076-8.857-14.908-13.226-23.49-13.106c-8.584,0.12-17.688,3.33-27.314,9.631
		c-10.119,6.622-16.246,14.387-18.379,23.296c-2.137,8.91-0.807,17.024,3.982,24.344c3.832,5.855,8.561,9.164,14.186,9.926
		c5.654,0.808,13.537-0.596,23.652-4.209c14.025-5.043,22.371-7.588,25.037-7.638c2.557-0.127,4.514,0.848,5.873,2.924
		c1.416,2.165,1.307,4.555-0.328,7.17c-1.637,2.616-4.443,5.225-8.42,7.827c-6.762,4.426-12.203,6.229-16.322,5.405
		c-2.324-0.455-4.771-2.186-7.348-5.192l-20.471,13.398c5.191,7.934,12.357,12.569,21.494,13.907
		c9.139,1.338,19.783-1.969,31.932-9.92c11.891-7.781,19.059-16.005,21.508-24.669s1.117-16.905-3.998-24.719
		c-3.717-5.682-8.793-9.123-15.225-10.323C818.34,919.431,810.535,920.547,801.375,923.901z"/>
	<path fill="#00ADEF" d="M896.217,957.361c1.111-1.029,2.57-3.518,4.379-7.463c1.809-3.946,2.691-8.13,2.646-12.551
		c-0.057-4.103-1.135-8.029-3.232-11.778c-2.098-3.75-4.451-7.032-7.059-9.847l-14.846-16.021l-19.002,17.608l17.146,18.504
		l10.674-9.89c3.627,4.41,5.68,8.546,6.164,12.407c0.482,3.862-0.584,7.929-3.199,12.199L896.217,957.361z"/>
	
		<rect x="847.019" y="791.298" transform="matrix(0.8297 0.5582 -0.5582 0.8297 603.7672 -370.6669)" fill="#00ADEF" width="124.785" height="25.905"/>
	<path fill="#00ADEF" d="M948.258,720.962c2.895-0.151,6.561,0.745,10.996,2.689l51.285,22.489l9.928-22.64l-56.908-24.954
		c-10.596-4.646-19.4-5.192-26.412-1.639c-7.012,3.555-12.436,9.701-16.268,18.44c-3.066,6.995-3.879,13.526-2.441,19.593
		c0.816,3.385,2.787,7.461,5.914,12.229l-12.445-5.457l-9.281,21.166l84.354,36.989l9.588-21.863l-45.639-20.013
		c-5.209-2.284-9.17-4.886-11.887-7.807c-5.117-5.58-6.027-12.126-2.732-19.639C938.988,724.434,942.973,721.238,948.258,720.962z"
		/>
	<path fill="#00ADEF" d="M972.393,624.49c3.082-1.336,6.375-1.921,9.881-1.752l4.365-24.418
		c-13.184-0.978-22.979,1.705-29.389,8.049c-6.408,6.345-10.631,15.218-12.67,26.619c-2.395,13.402,0.053,24.687,7.346,33.851
		c7.291,9.165,18.73,15.14,34.316,17.926c13.857,2.477,25.744,1.044,35.656-4.301c9.916-5.344,16.18-15.329,18.793-29.955
		c2.615-14.625-0.607-26.594-9.664-35.903c-5.609-5.823-11.977-9.659-19.1-11.507l-4.35,24.334c4.689,1.354,8.326,3.462,10.91,6.326
		s3.381,7.066,2.391,12.608c-1.396,7.815-6.137,12.459-14.221,13.93c-4.346,0.825-9.861,0.641-16.547-0.555
		c-7.021-1.255-12.51-3.037-16.469-5.346c-7.443-4.362-10.451-10.532-9.025-18.514C965.617,630.285,968.209,626.487,972.393,624.49z
		"/>
	
		<rect x="1019.806" y="555.652" transform="matrix(-0.9999 -0.0162 0.0162 -0.9999 2055.5044 1153.8389)" fill="#00ADEF" width="25.228" height="25.905"/>
	<path fill="#00ADEF" d="M40.439,303.262c17.771,39.336,44.03,73.044,72.522,104.722c37.312,41.485,80.669,75.54,130.929,100.895
		c54.971,27.731,113.189,38.482,173.998,37.063c29.797-0.699,30.068-1.553,35.453-30.255c4.695-25.027,14.984-47.482,30.506-68.104
		c-28.047-16.023-54.967-31.973-82.42-46.956c-36.369-19.854-73.047-39.15-109.803-58.289
		c-20.193-10.506-40.73-20.352-61.254-30.196c-27.621-13.251-55.698-25.557-84.43-36.15c-25.71-9.482-51.801-18.381-79.315-20.87
		c-32.678-2.947-37.176,17.129-29.516,40.686C37.944,298.377,39.319,300.782,40.439,303.262z"/>
	<path fill="#00ADEF" d="M583.721,406.621c-76.729,11.421-128.225,79.588-115.783,158.007
		c11.873,74.82,76.961,123.712,151.074,115.155c79.668-9.193,132.094-80.124,120.453-156.454
		C729.939,448.493,660.447,395.2,583.721,406.621z"/>
	<path fill="#00ADEF" d="M793.129,211.79c-16.443,25.151-30.285,51.993-45.883,77.724c-23.176,38.238-43.191,78.188-64.428,117.474
		c-1.777,3.281-1.873,5.351,2.346,7.03c3.512,1.401,6.574,4.062,9.658,6.406c23.803,18.099,41.207,41.006,52.002,68.971
		c1.672,4.324,2.359,9.22,10.426,4.736c42.293-23.504,73.598-57.724,97.178-99.038c28.756-50.386,43.145-105.668,51.564-162.668
		c4.811-32.591,7.557-65.331,6.445-99.056c-1.279-4.582-2.596-9.9-4.254-15.113c-5.33-16.723-15.814-20.579-30.316-10.624
		c-3.795,2.603-7.822,4.888-11.354,8.214C836.791,143.841,815.182,178.076,793.129,211.79z"/>
	<path fill="#00ADEF" d="M543.092,682.145c-35.676-14.401-60.652-40.229-77.203-74.509c-3.127-6.481-6.277-8.79-13.547-5.448
		c-23.402,10.767-45.611,23.313-64.932,40.535c-13.541,12.062-17.145,25.645-10.865,40.097c3.629,8.372,10.977,12.946,18.168,17.61
		c33.068,21.422,69.316,31.52,106.887,30.878c23.516-4.789,38.35-16.932,46.115-37.915
		C549.918,687.438,549.469,684.717,543.092,682.145z"/>
	<path fill="#00ADEF" d="M752.996,669.837c22.736-0.914,62.416-41.279,66.602-63.653c1.771-9.475-1.305-18.553-8.703-26.651
		c-13.396-14.656-32.336-16.454-48.838-23.847c-4.703-2.113-6.492,0.658-7.102,4.7c-4.795,31.537-15.318,60.388-38.102,83.82
		c-4.018,4.145-3.689,9.77,1.146,13.292C728.531,665.139,739.281,672.763,752.996,669.837z"/>
	<path fill="#00ADEF" d="M557.584,782.07c0.189-0.679,0.338-1.342,0.271-2.062c-0.057-0.624-0.449-0.976-0.885-1.279
		c-0.393-0.271-0.879-0.35-1.357-0.404c-1.256-0.145-2.512-0.127-3.771-0.092c-0.883,0.023-1.768,0.023-2.652,0.041
		c-0.801,0.017-1.602,0.022-2.402,0.034c-0.947,0.012-1.893,0.029-2.84,0.033c-0.197,0.001-0.248,0.055-0.223,0.254
		c0.08,0.659,0.152,1.319,0.207,1.981c0.064,0.812,0.119,1.623,0.154,2.437c0.055,1.29,0.078,2.582,0.023,3.872
		c-0.035,0.833-0.074,1.667-0.229,2.49c-0.135,0.727-0.277,1.448-0.604,2.119c-0.17,0.35-0.393,0.657-0.697,0.899
		c-0.234,0.188-0.475-0.013-0.715-0.008c-0.578,0.014-1.143-0.145-1.709-0.225c-0.787-0.11-1.57-0.297-2.355-0.431
		c-0.781-0.134-1.588-0.269-2.393-0.104c-0.521,0.105-1.02,0.275-1.471,0.566c-0.668,0.432-1.133,1.02-1.43,1.758
		c-0.223,0.558-0.375,1.131-0.465,1.723c-0.057,0.378,0.008,0.752,0.01,1.127c0.002,0.576,0.1,1.131,0.227,1.685
		c0.205,0.916,0.744,1.575,1.609,1.932c0.883,0.364,1.836,0.339,2.758,0.321c0.758-0.016,1.52-0.065,2.279-0.09
		c0.582-0.019,1.16,0.032,1.742,0.182c0.48,0.121,0.936,0.25,1.369,0.486c0.33,0.181,0.607,0.435,0.822,0.714
		c0.135,0.175,0.113,0.501,0.102,0.758c-0.02,0.533-0.088,1.063-0.121,1.597c-0.104,1.661-0.277,3.314-0.568,4.954
		c-0.096,0.542-0.176,1.087-0.316,1.623c-0.152,0.589-0.264,1.19-0.443,1.773c-0.182,0.592-0.355,1.186-0.533,1.778
		c-0.045,0.145-0.002,0.205,0.156,0.229c0.449,0.064,0.9,0.112,1.35,0.21c0.943,0.209,1.912,0.283,2.861,0.469
		c0.715,0.139,1.443,0.204,2.154,0.354c0.32,0.067,0.658,0.059,0.963,0.19c0.348,0.149,0.73,0.19,1.086,0.242
		c0.578,0.087,1.17,0.146,1.77,0.132c0.451-0.01,0.904,0.01,1.346-0.083c0.779-0.164,1.514-0.432,2.018-1.101
		c0.359-0.479,0.607-1.003,0.559-1.628c-0.043-0.55-0.211-1.076-0.26-1.628c-0.109-1.25-0.299-2.494-0.031-3.751
		c0.07-0.332,0.104-0.672,0.23-0.989c0.236-0.578,0.57-1.089,1.166-1.333c0.291-0.119,0.627-0.169,0.93-0.259
		c0.758-0.222,1.518-0.225,2.285-0.204c0.357,0.009,0.709,0.091,1.063,0.138c0.482,0.064,0.898,0.271,1.328,0.453
		c0.668,0.284,1.158,0.816,1.654,1.32c0.332,0.34,0.488,0.766,0.441,1.287c-0.076,0.834-0.238,1.657-0.287,2.494
		c-0.008,0.116,0.008,0.239-0.027,0.346c-0.193,0.564-0.227,1.162-0.371,1.734c-0.113,0.439-0.189,0.884-0.379,1.311
		c-0.217,0.488-0.191,1.008,0.033,1.521c0.283,0.646,0.846,0.97,1.426,1.229c0.709,0.32,1.479,0.478,2.254,0.602
		c0.738,0.119,1.479,0.146,2.221,0.171c0.232,0.009,0.469,0.017,0.697-0.011c0.451-0.053,0.9-0.11,1.35-0.096
		c0.357,0.013,0.715-0.034,1.061-0.074c0.564-0.066,1.131-0.108,1.695-0.127c0.451-0.013,0.893-0.104,1.352-0.091
		c0.48,0.015,0.971-0.1,1.461-0.085c0.326,0.01,0.42-0.067,0.404-0.395c-0.023-0.445-0.063-0.891-0.076-1.336
		c-0.041-1.153-0.059-2.308-0.076-3.461c-0.023-1.458,0.016-2.913,0.076-4.235c0.123-1.207,0.199-2.288,0.498-3.33
		c0.135-0.47,0.24-0.972,0.648-1.317c0.246-0.209,0.49-0.369,0.85-0.275c0.258,0.069,0.52,0.141,0.787,0.189
		c0.238,0.044,0.504,0.001,0.711,0.117c0.293,0.165,0.621,0.279,0.926,0.327c0.719,0.112,1.406,0.343,2.121,0.463
		c0.721,0.121,1.426,0.258,2.174,0.162c0.641-0.082,1.199-0.321,1.639-0.742c0.49-0.466,0.791-1.098,0.957-1.745
		c0.254-1.005,0.447-2.031,0.385-3.081c-0.041-0.713-0.158-1.413-0.611-2.004c-0.521-0.683-1.285-0.939-2.076-1.097
		c-1.236-0.244-2.496-0.171-3.748-0.221c-0.973-0.039-1.939-0.099-2.885-0.351c-0.287-0.077-0.525-0.209-0.654-0.527
		c-0.18-0.447-0.303-0.907-0.426-1.371c-0.211-0.8-0.35-1.619-0.365-2.436c-0.023-1.192-0.043-2.385,0.131-3.579
		c0.248-1.699,0.641-3.359,1.141-4.998c0.137-0.448,0.119-0.458-0.334-0.613c-0.475-0.164-0.93-0.386-1.412-0.533
		c-0.531-0.161-1.035-0.405-1.582-0.521c-0.301-0.063-0.605-0.151-0.881-0.263c-0.518-0.208-1.061-0.376-1.586-0.482
		c-0.84-0.169-1.688-0.34-2.537-0.459c-0.889-0.125-1.787-0.135-2.686-0.002c-0.811,0.119-1.549,0.388-2.096,1.015
		c-0.283,0.325-0.506,0.719-0.426,1.188c0.049,0.283,0.035,0.569,0.064,0.851c0.145,1.474,0.15,2.95-0.037,4.423
		c-0.041,0.317-0.086,0.638-0.17,0.945c-0.109,0.396-0.244,0.785-0.414,1.163c-0.211,0.462-0.49,0.937-0.953,1.089
		c-1.137,0.374-2.32,0.506-3.527,0.446c-0.604-0.03-1.162-0.222-1.715-0.403c-0.537-0.177-0.973-0.541-1.373-0.98
		c-0.467-0.51-0.756-1.075-0.904-1.718c-0.158-0.694-0.027-1.401,0.107-2.084C556.818,784.197,557.279,783.157,557.584,782.07z"/>
	<path fill="#00ADEF" d="M577.129,839.028c-0.148,0.213-0.523,0.299-0.816,0.376c-0.607,0.16-1.229,0.266-1.84,0.411
		c-1.904,0.455-3.824,0.826-5.77,1.063c-0.643,0.079-1.285,0.175-1.936,0.202c-0.717,0.029-1.432,0.111-2.148,0.11
		c-0.729-0.003-1.457,0.007-2.186,0.01c-0.178,0-0.23,0.068-0.205,0.255c0.084,0.528,0.186,1.054,0.229,1.591
		c0.09,1.135,0.34,2.25,0.457,3.382c0.088,0.852,0.264,1.694,0.342,2.546c0.035,0.385,0.16,0.762,0.115,1.15
		c-0.047,0.442,0.037,0.887,0.102,1.304c0.1,0.681,0.238,1.366,0.459,2.036c0.166,0.506,0.299,1.021,0.557,1.487
		c0.451,0.819,1.006,1.556,1.932,1.892c0.662,0.24,1.338,0.34,2.023,0.07c0.605-0.237,1.139-0.608,1.744-0.852
		c1.369-0.553,2.703-1.194,4.211-1.325c0.396-0.035,0.791-0.115,1.191-0.079c0.73,0.065,1.42,0.267,1.9,0.853
		c0.234,0.287,0.406,0.649,0.611,0.958c0.51,0.777,0.773,1.631,1.016,2.502c0.113,0.404,0.141,0.83,0.209,1.242
		c0.094,0.565,0.004,1.104-0.053,1.65c-0.092,0.849-0.521,1.586-0.918,2.315c-0.268,0.492-0.693,0.813-1.297,0.938
		c-0.965,0.201-1.947,0.303-2.906,0.534c-0.133,0.031-0.266,0.093-0.398,0.089c-0.701-0.024-1.385,0.144-2.078,0.178
		c-0.533,0.024-1.061,0.091-1.605,0.024c-0.625-0.076-1.199,0.131-1.701,0.56c-0.631,0.541-0.801,1.285-0.893,2.027
		c-0.117,0.909-0.029,1.829,0.098,2.744c0.119,0.872,0.344,1.713,0.57,2.558c0.07,0.265,0.143,0.532,0.252,0.781
		c0.215,0.489,0.434,0.975,0.572,1.486c0.107,0.406,0.283,0.793,0.447,1.166c0.268,0.613,0.51,1.236,0.725,1.865
		c0.17,0.505,0.424,0.969,0.566,1.489c0.15,0.547,0.447,1.06,0.598,1.617c0.102,0.37,0.221,0.449,0.584,0.318
		c0.492-0.18,0.98-0.376,1.477-0.545c1.283-0.442,2.578-0.858,3.869-1.275c1.633-0.527,3.283-0.983,4.793-1.369
		c1.4-0.276,2.643-0.563,3.92-0.585c0.574-0.009,1.174-0.063,1.705,0.277c0.227,0.147,0.42,0.304,0.523,0.536
		c-0.053-1.109-0.307-2.185-0.586-3.256c-0.375-1.425-0.891-2.819-1.041-4.295c-0.094-0.944-0.068-1.891,0.521-2.712
		c0.51-0.715,1.256-1.086,2.045-1.377c1.16-0.432,2.383-0.567,3.6-0.626c0.785-0.036,1.6,0.087,2.293,0.478
		c0.625,0.351,1.086,0.896,1.398,1.59c0.363,0.809,0.453,1.649,0.564,2.501c0.111,0.847,0.088,1.699,0.207,2.548
		c0.053,0.358,0.037,0.766-0.051,1.152c-0.059,0.273,0.082,0.559,0.115,0.842c0.037,0.317,0.045,0.636,0.057,0.951
		c0.002,0.084,0.023,0.153,0.043,0.223l0.025-0.009c-0.014-0.351,0.053-0.664,0.369-0.917c0.439-0.355,0.916-0.652,1.395-0.95
		c0.828-0.514,1.703-0.951,2.615-1.249c1.336-0.436,2.67-0.866,4.074-1.081c1.998-0.305,4-0.435,6.016-0.436
		c0.553,0,0.559-0.023,0.576-0.585c0.021-0.591,0.115-1.18,0.115-1.774c-0.002-0.651,0.102-1.303,0.043-1.958
		c-0.033-0.359-0.039-0.734-0.008-1.081c0.057-0.654,0.059-1.323-0.002-1.95c-0.1-1.003-0.197-2.017-0.355-3.015
		c-0.166-1.043-0.463-2.058-0.92-3.021c-0.412-0.873-0.969-1.61-1.863-2.011c-0.463-0.207-0.982-0.323-1.482-0.072
		c-0.303,0.153-0.629,0.237-0.936,0.364c-1.607,0.672-3.268,1.186-4.99,1.479c-0.369,0.063-0.746,0.121-1.121,0.133
		c-0.482,0.014-0.969-0.003-1.451-0.066c-0.592-0.077-1.223-0.229-1.555-0.698c-0.811-1.15-1.365-2.438-1.713-3.815
		c-0.174-0.69-0.15-1.384-0.135-2.069c0.014-0.665,0.273-1.279,0.631-1.883c0.412-0.699,0.949-1.219,1.623-1.606
		c0.727-0.418,1.566-0.514,2.383-0.597c1.32-0.133,2.648,0.028,3.977-0.003c0.83-0.02,1.627-0.08,2.414-0.402
		c0.682-0.278,0.943-0.841,1.135-1.437c0.172-0.533,0.092-1.107-0.012-1.666c-0.268-1.463-0.719-2.869-1.191-4.274
		c-0.33-0.986-0.635-1.981-0.957-2.972c-0.295-0.896-0.576-1.796-0.865-2.692c-0.338-1.062-0.682-2.119-1.012-3.184
		c-0.07-0.222-0.148-0.261-0.363-0.164c-0.715,0.316-1.432,0.625-2.16,0.913c-0.891,0.352-1.783,0.693-2.688,1.011
		c-1.434,0.506-2.879,0.976-4.35,1.356c-0.949,0.247-1.902,0.49-2.881,0.601c-0.865,0.096-1.725,0.186-2.594,0.049
		c-0.451-0.072-0.873-0.216-1.25-0.476c-0.293-0.2-0.15-0.54-0.238-0.808c-0.215-0.647-0.229-1.336-0.334-2.002
		c-0.146-0.922-0.205-1.868-0.324-2.798c-0.119-0.926-0.244-1.879-0.705-2.729c-0.297-0.55-0.66-1.052-1.143-1.46
		c-0.715-0.603-1.537-0.925-2.469-1.004c-0.705-0.06-1.402-0.034-2.1,0.069c-0.445,0.064-0.844,0.265-1.266,0.396
		c-0.646,0.201-1.238,0.502-1.818,0.834c-0.959,0.546-1.516,1.379-1.619,2.477c-0.107,1.116,0.248,2.181,0.586,3.214
		c0.277,0.846,0.596,1.686,0.883,2.532c0.223,0.649,0.363,1.318,0.396,2.025c0.027,0.58,0.039,1.139-0.078,1.706
		C577.561,838.292,577.371,838.69,577.129,839.028z"/>
	<path fill="#00ADEF" d="M524.779,895.515c-0.127,0.333-0.305,0.631-0.563,0.877c-0.199,0.191-0.436,0.028-0.652,0.053
		c-0.527,0.061-1.055-0.037-1.578-0.063c-0.725-0.035-1.455-0.141-2.182-0.196c-0.725-0.058-1.471-0.112-2.191,0.104
		c-0.467,0.139-0.906,0.336-1.293,0.638c-0.574,0.45-0.949,1.025-1.156,1.722c-0.158,0.526-0.25,1.063-0.281,1.61
		c-0.021,0.349,0.068,0.686,0.102,1.026c0.051,0.525,0.186,1.022,0.346,1.518c0.264,0.816,0.811,1.374,1.631,1.627
		c0.832,0.259,1.699,0.156,2.541,0.063c0.688-0.077,1.377-0.186,2.068-0.271c0.529-0.065,1.061-0.067,1.605,0.021
		c0.445,0.07,0.873,0.15,1.287,0.329c0.316,0.138,0.59,0.346,0.809,0.584c0.139,0.147,0.145,0.446,0.158,0.683
		c0.025,0.487,0.006,0.977,0.02,1.465c0.045,1.523,0.023,3.045-0.105,4.564c-0.041,0.502-0.07,1.006-0.152,1.506
		c-0.092,0.551-0.143,1.108-0.258,1.654c-0.117,0.555-0.225,1.11-0.338,1.666c-0.029,0.136,0.016,0.187,0.162,0.196
		c0.414,0.021,0.832,0.027,1.246,0.079c0.879,0.112,1.77,0.099,2.65,0.188c0.662,0.068,1.332,0.067,1.992,0.144
		c0.299,0.034,0.605-0.001,0.895,0.095c0.33,0.106,0.682,0.112,1.01,0.129c0.533,0.032,1.078,0.036,1.623-0.026
		c0.412-0.046,0.826-0.065,1.221-0.188c0.697-0.214,1.346-0.519,1.748-1.171c0.289-0.467,0.471-0.966,0.375-1.531
		c-0.086-0.498-0.283-0.964-0.373-1.462c-0.203-1.131-0.479-2.25-0.34-3.418c0.035-0.309,0.037-0.621,0.129-0.921
		c0.166-0.546,0.428-1.039,0.951-1.313c0.256-0.133,0.559-0.206,0.826-0.313c0.672-0.267,1.365-0.332,2.066-0.377
		c0.326-0.022,0.654,0.024,0.98,0.037c0.445,0.019,0.842,0.172,1.248,0.303c0.633,0.204,1.125,0.648,1.619,1.067
		c0.332,0.281,0.508,0.656,0.508,1.136c0,0.768-0.078,1.532-0.055,2.299c0.004,0.105,0.029,0.217,0.006,0.317
		c-0.131,0.529-0.111,1.078-0.195,1.611c-0.066,0.41-0.1,0.821-0.236,1.228c-0.156,0.463-0.09,0.934,0.156,1.383
		c0.313,0.566,0.852,0.815,1.402,1.003c0.674,0.232,1.389,0.312,2.105,0.36c0.684,0.048,1.359,0.01,2.039-0.028
		c0.213-0.013,0.428-0.023,0.635-0.068c0.406-0.085,0.813-0.175,1.225-0.199c0.326-0.019,0.648-0.09,0.959-0.156
		c0.51-0.106,1.021-0.192,1.535-0.257c0.412-0.049,0.805-0.168,1.225-0.194c0.439-0.027,0.877-0.172,1.326-0.199
		c0.299-0.018,0.377-0.096,0.334-0.394c-0.059-0.403-0.131-0.807-0.18-1.212c-0.133-1.048-0.244-2.099-0.357-3.149
		c-0.143-1.327-0.229-2.657-0.281-3.868c0.01-1.109-0.01-2.102,0.176-3.078c0.084-0.438,0.139-0.904,0.482-1.254
		c0.207-0.211-1-0.952-0.666-0.896c0.197,0.034-0.07-2.635-0.041-3.612l-0.086,0.407c-0.27-0.046,0.729-3.676,0.586-3.956
		c-0.201-0.392-0.352-0.802-0.502-1.213c-0.26-0.713-0.455-1.448-0.537-2.191c-0.119-1.086-0.236-2.17-0.176-3.274
		c0.084-1.569,0.303-3.116,0.623-4.651c0.086-0.421,0.07-0.428-0.355-0.53c-0.445-0.111-0.881-0.275-1.332-0.37
		c-0.496-0.103-0.977-0.284-1.486-0.344c-0.277-0.032-0.564-0.088-0.824-0.166c-0.49-0.146-0.998-0.255-1.486-0.308
		c-0.779-0.083-1.566-0.169-2.352-0.208c-0.82-0.039-1.641,0.026-2.447,0.222c-0.73,0.176-1.381,0.482-1.828,1.1
		c-0.23,0.32-0.402,0.697-0.289,1.118c0.068,0.255,0.08,0.517,0.129,0.771c0.256,1.331,0.385,2.677,0.334,4.036
		c-0.01,0.291-0.025,0.588-0.076,0.875c-0.066,0.37-0.156,0.737-0.281,1.095c-0.152,0.438-0.369,0.896-0.779,1.073
		c-1.004,0.436-2.072,0.653-3.178,0.699c-0.553,0.022-1.078-0.104-1.598-0.226c-0.504-0.116-0.93-0.411-1.334-0.779
		c-0.467-0.426-0.777-0.917-0.965-1.491c-0.205-0.619-0.143-1.275-0.078-1.91c0.109-1.027,0.443-2.014,0.631-3.029
		c0.115-0.635,0.195-1.251,0.076-1.902c-0.104-0.563-0.49-0.852-0.914-1.093c-0.379-0.215-0.83-0.245-1.271-0.255
		c-1.156-0.028-2.299,0.092-3.445,0.229c-0.803,0.094-1.609,0.168-2.416,0.257c-0.729,0.083-1.459,0.154-2.188,0.231
		c-0.861,0.089-1.723,0.184-2.586,0.266c-0.18,0.019-0.221,0.071-0.182,0.251c0.127,0.594,0.248,1.189,0.354,1.79
		c0.125,0.734,0.244,1.469,0.342,2.208c0.158,1.173,0.287,2.348,0.344,3.528c0.037,0.763,0.07,1.527,0,2.29
		C525.088,894.205,525.02,894.875,524.779,895.515z"/>
	<path fill="#00ADEF" d="M556.727,898.983l0.072-0.354C556.754,898.625,556.732,898.761,556.727,898.983z"/>
	<path fill="#00ADEF" d="M581.906,731.844c-1.314,1.471-2.73,2.851-4.072,4.296c-1.271,1.368-2.662,2.606-4.074,3.814
		c-1.426,1.218-2.938,2.336-4.424,3.484c-0.662,0.512-1.342,1.005-2.035,1.475c-0.676,0.459-1.379,0.876-2.068,1.314
		c-0.334,0.215-0.377,0.476-0.127,0.796c0.617,0.787,1.219,1.586,1.84,2.373c0.699,0.889,1.42,1.762,2.145,2.628
		c0.697,0.832,1.461,1.612,2.129,2.478c0.561,0.728,1.217,1.403,1.854,2.08c1.195,1.274,2.309,2.629,3.604,3.812
		c0.998,0.908,1.898,1.924,3.021,2.695c0.689,0.475,1.266,1.097,1.979,1.552c0.721,0.46,1.352,1.135,2.129,1.409
		c1.242,0.435,2.348,1.18,3.813,1.16c1.287-0.017,1.947-0.347,2.494-1.244c1.582-2.598,3.355-5.037,5.756-7.491
		c1.07-1.26,2.574-2.593,4.451-3.453c1.189-0.547,2.42-0.771,3.635-0.197c1.043,0.491,2.08,1.004,3.045,1.653
		c2.021,1.36,3.889,2.871,5.1,5.048c0.932,1.672,1.287,3.426,1.031,5.348c-0.146,1.097-0.529,1.971-1.357,2.7
		c-1.002,0.884-1.998,1.769-3.061,2.583c-0.801,0.617-1.518,1.354-2.365,1.892c-0.934,0.589-1.818,1.245-2.75,1.834
		c-0.811,0.513-1.604,1.072-2.457,1.5c-0.693,0.346-0.912,0.625-0.863,1.411c0.117,1.821,1.002,3.332,2.086,4.673
		c1.514,1.878,3.395,3.405,5.275,4.919c2.033,1.639,4.012,3.348,5.992,5.049c1.234,1.059,2.447,2.162,3.676,3.223
		c1.443,1.247,2.889,2.505,4.373,3.711c0.537,0.434,0.637,0.503,1.01-0.087c0.547-0.862,1.307-1.54,1.934-2.334
		c1.604-2.038,3.309-3.997,4.955-6c2.002-2.432,3.988-4.875,5.977-7.317c1.273-1.567,2.707-2.964,4.436-4.02
		c1.055-0.645,2.176-1.196,3.447-1.209c0.457-0.005,1.051-0.186,1.355,0.323c0.326,0.546,0.67,1.083,0.963,1.64
		c0.641,1.212,1.475,2.292,2.184,3.453c0.246,0.405,0.623,0.696,0.84,1.048c0.627,1.015,1.439,1.872,2.15,2.811
		c0.635,0.837,1.479,1.531,2.014,2.42c0.365,0.611,0.809,0.735,1.379,0.8c0.086,0.01,0.158,0.012,0.227,0.064
		c0.68,0.522,1.527,0.398,2.262,0.398c1.406-0.002,2.762-0.469,3.99-1.169c0.932-0.532,1.715-1.282,2.463-2.048
		c1.324-1.356,2.266-2.979,3.26-4.585c0.912-1.472,1.143-2.904,0.639-4.471c-0.342-1.062-1.02-1.989-1.711-2.843
		c-1.861-2.298-4.236-4.055-6.543-5.857c-0.619-0.485-1.41-0.861-2.113-1.29c-0.748-0.456-1.59-0.881-1.979-1.736
		c-0.668-1.454-0.498-2.947,0.088-4.361c0.971-2.337,2.508-4.316,4.168-6.202c1.42-1.608,2.994-3.059,4.537-4.543
		c0.412-0.395,0.871-0.737,1.301-1.109c1.201-1.03,2.406-2.048,3.654-3.024c1.139-0.893,2.262-1.811,3.428-2.666
		c1.32-0.965,2.658-1.903,3.984-2.855c0.16-0.115,0.242-0.303,0.074-0.427c-0.613-0.455-0.775-1.252-1.275-1.741
		c-1.316-1.285-2.281-2.85-3.525-4.181c-0.617-0.664-1.148-1.398-1.674-2.119c-0.746-1.027-1.543-2.024-2.344-2.997
		c-0.664-0.806-1.256-1.682-1.879-2.502c-0.621-0.82-1.367-1.51-2.012-2.292c-0.727-0.88-1.623-1.633-2.629-2.203
		c-0.846-0.479-1.709-0.927-2.572-1.374c-0.32-0.165-0.729-0.018-1.016-0.125c-1.582-0.597-2.998-0.104-4.289,0.707
		c-1.293,0.813-2.275,1.917-2.957,3.376c-0.908,1.952-2.145,3.745-3.447,5.474c-0.607,0.808-1.174,1.668-1.893,2.367
		c-0.545,0.529-1.166,1.01-1.768,1.487c-1.221,0.969-2.555,1.642-4.211,1.518c-1.34-0.102-2.402-0.848-3.463-1.473
		c-0.918-0.54-1.84-1.176-2.625-1.951c-1.027-1.018-2.02-2.038-2.789-3.304c-0.635-1.049-1.172-2.106-1.484-3.276
		c-0.195-0.734-0.303-1.491-0.447-2.236c-0.256-1.332,0.045-2.439,1.057-3.435c1.936-1.896,3.924-3.729,5.998-5.465
		c0.82-0.683,1.625-1.395,2.516-2.009c1.105-0.76,2.303-1.428,2.98-2.715c0.379-0.724,0.594-1.508,0.572-2.229
		c-0.057-1.892-0.963-3.578-2.006-5.066c-1.219-1.737-2.639-3.347-4.297-4.732c-1.174-0.983-2.414-1.851-3.674-2.7
		c-1.77-1.193-3.543-2.381-5.314-3.569c-0.832-0.558-1.633-1.169-2.506-1.65c-0.469-0.259-0.85-0.627-1.307-0.87
		c-0.678-0.357-1.426-0.577-2.078-0.991c-0.637-0.409-1.131-0.26-1.43,0.439c-0.363,0.854-0.932,1.606-1.414,2.381
		c-0.559,0.894-1.166,1.78-1.777,2.649c-1.496,2.126-2.902,4.316-4.539,6.346c-2.137,2.648-4.35,5.206-7.225,7.1
		c-1.234,0.813-2.539,1.478-4.018,1.65c-1.836,0.215-3.416-0.459-4.768-1.665c-1.055-0.939-2.031-1.959-2.916-3.072
		c-0.316-0.396-0.477-0.905-0.879-1.213c-0.65-0.5-1.188-1.126-1.621-1.782c-0.543-0.821-1.367-1.234-2.109-1.749
		c-0.311-0.215-0.598-0.521-0.982-0.643c-1.029-0.331-2.037-0.649-3.148-0.746c-1.166-0.102-2.213,0.158-3.275,0.462
		c-1.785,0.514-3.059,1.855-4.512,2.907c-0.559,0.405-0.715,1.088-1.164,1.56c-1.006,1.055-1.734,2.304-2.127,3.674
		c-0.574,2.007,0.02,3.796,1.436,5.313c0.924,0.991,1.941,1.875,3.047,2.66c0.734,0.521,1.459,1.066,2.209,1.555
		c1.047,0.685,2.072,1.407,3.059,2.164c0.76,0.583,1.348,1.377,1.896,2.221c0.877,1.352,1.141,2.726,0.857,4.249
		C583.967,729.094,583.059,730.555,581.906,731.844z"/>
	<path fill="#00ADEF" d="M628.139,821.624c-0.268,0.321-0.574,0.583-1.049,0.525c-0.297-0.036-0.6-0.026-0.898-0.038
		c-0.488-0.019-0.973-0.06-1.453-0.115c-0.25-0.028-0.502-0.054-0.75-0.098c-0.301-0.054-0.578-0.197-0.918-0.119
		c-0.387,0.089-0.623,0.324-0.803,0.624c-0.207,0.35-0.313,0.748-0.371,1.15c-0.098,0.664-0.117,1.334-0.059,2.002
		c0.033,0.397,0.107,0.792,0.17,1.187c0.104,0.653,0.211,1.305,0.314,1.957c0.08,0.483,0.16,0.967,0.234,1.451
		c0.01,0.074,0.045,0.082,0.104,0.08c0.215-0.011,0.434,0.002,0.643-0.035c0.236-0.044,0.473-0.048,0.707-0.051
		c0.227-0.004,0.434-0.111,0.662-0.084c0.301,0.034,0.594-0.064,0.895-0.08c0.232-0.012,0.471-0.066,0.705-0.052
		c0.225,0.015,0.426-0.08,0.648-0.088c0.568-0.02,1.133-0.113,1.699-0.163c0.514-0.045,1.031-0.069,1.539,0.051
		c0.17,0.04,0.355,0.087,0.494,0.186c0.322,0.231,0.514,0.558,0.529,0.965c0.01,0.208-0.021,0.416-0.033,0.623
		c-0.02,0.332-0.113,0.648-0.193,0.965c-0.072,0.291-0.131,0.587-0.217,0.877c-0.104,0.344-0.104,0.719-0.143,1.081
		c-0.008,0.08-0.025,0.176,0.008,0.241c0.141,0.293,0.133,0.629,0.322,0.916c0.172,0.261,0.355,0.498,0.607,0.667
		c0.471,0.317,1.014,0.418,1.572,0.446c0.205,0.01,0.4-0.052,0.602-0.06c0.121-0.005,0.26,0.023,0.361-0.024
		c0.215-0.102,0.449-0.138,0.67-0.177c0.609-0.107,0.857-0.532,1.041-1.046c0.111-0.312,0.105-0.639,0.152-0.959
		c0.055-0.376,0.061-0.758,0.012-1.126c-0.047-0.347-0.041-0.697-0.109-1.046c-0.061-0.3-0.07-0.616-0.143-0.913
		c-0.08-0.319-0.029-0.603,0.145-0.861c0.25-0.371,0.604-0.585,1.041-0.711c0.471-0.134,0.943-0.185,1.426-0.192
		c0.627-0.012,1.246,0.063,1.865,0.135c0.238,0.027,0.479,0.08,0.707,0.123c0.309,0.059,0.627,0.148,0.939,0.212
		c0.709,0.146,1.395,0.369,2.096,0.568c0.068-0.334,0.137-0.663,0.203-0.993c0.023-0.123,0.053-0.247,0.07-0.372
		c0.076-0.532,0.148-1.065,0.223-1.599c0.061-0.428,0.104-0.857,0.137-1.289c0.033-0.423,0.039-0.846,0.057-1.269
		c0.027-0.668-0.047-1.33-0.182-1.984c-0.074-0.358-0.211-0.696-0.414-0.99c-0.199-0.291-0.506-0.518-0.881-0.429
		c-0.357,0.085-0.721,0.11-1.078,0.186c-0.357,0.076-0.729,0.102-1.094,0.117c-0.398,0.018-0.797,0.023-1.195-0.03
		c-0.369-0.051-0.73-0.131-1.059-0.303c-0.381-0.198-0.541-0.562-0.646-0.961c-0.16-0.604-0.238-1.213-0.219-1.841
		c0.012-0.366,0.109-0.712,0.24-1.035c0.141-0.349,0.395-0.643,0.715-0.86c0.244-0.166,0.494-0.322,0.814-0.28
		c0.256,0.033,0.512,0.088,0.766,0.099c0.525,0.021,1.029,0.155,1.543,0.239c0.301,0.049,0.604,0.107,0.889,0.204
		c0.162,0.055,0.35,0.053,0.486,0.18c0.043,0.04,0.092,0.002,0.139-0.027c0.289-0.183,0.449-0.46,0.557-0.77
		c0.242-0.689,0.232-1.398,0.168-2.114c-0.057-0.643-0.096-1.288-0.141-1.933c-0.043-0.566-0.084-1.134-0.123-1.7
		c-0.037-0.521-0.078-1.042-0.107-1.563c-0.01-0.203-0.025-0.221-0.238-0.208c-0.189,0.013-0.377,0.056-0.566,0.066
		c-0.592,0.032-1.184,0.083-1.775,0.138c-0.496,0.047-0.996,0.014-1.494,0.059c-0.344,0.03-0.693-0.011-1.039-0.021
		c-0.783-0.022-1.563-0.051-2.314-0.305c-0.23-0.078-0.459-0.205-0.559-0.412c-0.129-0.27-0.188-0.58-0.219-0.883
		c-0.059-0.592-0.045-1.186-0.021-1.778c0.02-0.528,0.049-1.056,0.012-1.584c-0.045-0.631-0.25-1.177-0.824-1.505
		c-0.348-0.197-0.744-0.259-1.137-0.283c-0.525-0.032-1.043,0.002-1.561,0.14c-0.303,0.081-0.555,0.227-0.756,0.434
		c-0.418,0.432-0.518,1.002-0.557,1.573c-0.061,0.908,0.072,1.811,0.125,2.715c0.023,0.446,0.055,0.897-0.137,1.323
		c-0.111,0.242-0.281,0.431-0.547,0.477c-0.262,0.045-0.529,0.063-0.795,0.064c-1.004,0.009-2.008,0.033-3.012-0.042
		c-0.725-0.055-1.445-0.13-2.164-0.229c-0.469-0.064-0.928-0.205-1.402-0.235c-0.039-0.003-0.059-0.016-0.08-0.051
		c-0.063-0.105-0.17-0.063-0.252-0.053c-0.09,0.012-0.043,0.104-0.047,0.159c-0.033,0.388-0.059,0.777-0.09,1.165
		c-0.064,0.821-0.129,1.643-0.197,2.464c-0.021,0.271-0.053,0.541-0.088,0.811c-0.049,0.373-0.107,0.747-0.109,1.123
		c-0.004,0.451,0.029,0.897,0.164,1.337c0.107,0.348,0.229,0.674,0.488,0.936c0.127,0.129,0.289,0.204,0.443,0.297
		c0.289,0.176,0.588,0.215,0.887,0.144c0.326-0.077,0.646-0.181,0.975-0.245c0.416-0.082,0.836-0.173,1.258-0.194
		c0.559-0.029,1.121-0.038,1.666,0.182c0.379,0.153,0.621,0.416,0.75,0.783c0.133,0.385,0.258,0.775,0.299,1.185
		c0.043,0.411,0.07,0.818-0.006,1.23C628.75,820.655,628.512,821.174,628.139,821.624z"/>
	<path fill="#00ADEF" d="M533.379,949.609c0.33,0.037,0.641,0.148,0.951,0.246c0.287,0.09,0.58,0.164,0.863,0.268
		c0.338,0.122,0.713,0.143,1.072,0.202c0.08,0.014,0.174,0.035,0.24,0.007c0.301-0.125,0.637-0.097,0.934-0.27
		c0.27-0.158,0.518-0.328,0.701-0.569c0.342-0.452,0.475-0.988,0.533-1.545c0.021-0.203-0.029-0.402-0.025-0.604
		c0.002-0.122,0.039-0.259-0.004-0.362c-0.09-0.221-0.111-0.456-0.139-0.679c-0.072-0.614-0.482-0.887-0.984-1.099
		c-0.305-0.129-0.633-0.142-0.949-0.206c-0.373-0.076-0.754-0.104-1.123-0.076c-0.35,0.027-0.699,0.002-1.051,0.051
		c-0.303,0.043-0.619,0.035-0.92,0.091c-0.324,0.061-0.604-0.006-0.852-0.193c-0.357-0.271-0.551-0.636-0.65-1.079
		c-0.107-0.478-0.131-0.953-0.111-1.436c0.023-0.626,0.133-1.239,0.24-1.854c0.039-0.236,0.105-0.474,0.162-0.699
		c0.076-0.306,0.184-0.618,0.264-0.927c0.186-0.699,0.449-1.37,0.688-2.061c-0.33-0.086-0.654-0.173-0.98-0.258
		c-0.121-0.031-0.244-0.066-0.367-0.092c-0.527-0.106-1.057-0.208-1.584-0.312c-0.424-0.085-0.85-0.152-1.279-0.211
		c-0.42-0.057-0.842-0.087-1.264-0.127c-0.664-0.065-1.33-0.029-1.99,0.068c-0.363,0.054-0.707,0.172-1.014,0.356
		c-0.301,0.184-0.545,0.478-0.477,0.856c0.064,0.361,0.068,0.726,0.123,1.087c0.057,0.36,0.061,0.732,0.057,1.098
		c-0.006,0.398-0.023,0.797-0.1,1.191c-0.07,0.367-0.172,0.724-0.361,1.041c-0.219,0.369-0.592,0.508-0.996,0.591
		c-0.613,0.126-1.225,0.169-1.85,0.113c-0.365-0.032-0.705-0.148-1.02-0.297c-0.342-0.161-0.619-0.432-0.82-0.763
		c-0.15-0.254-0.293-0.512-0.232-0.829c0.047-0.254,0.117-0.507,0.141-0.76c0.053-0.523,0.215-1.019,0.326-1.526
		c0.066-0.297,0.143-0.596,0.256-0.876c0.063-0.158,0.072-0.346,0.205-0.476c0.043-0.041,0.008-0.092-0.018-0.14
		c-0.166-0.3-0.436-0.474-0.738-0.6c-0.674-0.281-1.383-0.312-2.102-0.287c-0.645,0.021-1.291,0.022-1.938,0.031
		c-0.566,0.01-1.137,0.02-1.703,0.027c-0.523,0.007-1.045,0.018-1.568,0.018c-0.203-0.001-0.221,0.013-0.221,0.227
		c0.002,0.19,0.035,0.38,0.035,0.568c-0.002,0.594,0.016,1.188,0.037,1.781c0.018,0.498-0.043,0.995-0.027,1.494
		c0.012,0.346-0.049,0.692-0.08,1.037c-0.066,0.781-0.139,1.557-0.436,2.293c-0.09,0.227-0.23,0.446-0.441,0.534
		c-0.277,0.114-0.59,0.155-0.895,0.169c-0.594,0.024-1.186-0.021-1.777-0.078c-0.525-0.051-1.051-0.109-1.58-0.102
		c-0.633,0.009-1.189,0.183-1.549,0.737c-0.217,0.335-0.301,0.729-0.348,1.119c-0.063,0.521-0.057,1.041,0.051,1.565
		c0.064,0.307,0.195,0.566,0.391,0.778c0.406,0.443,0.971,0.575,1.539,0.646c0.904,0.111,1.813,0.03,2.717,0.029
		c0.447,0.001,0.9-0.004,1.314,0.212c0.234,0.124,0.414,0.304,0.445,0.572c0.029,0.263,0.031,0.532,0.02,0.797
		c-0.049,1.003-0.082,2.006-0.213,3.005c-0.096,0.721-0.211,1.436-0.352,2.147c-0.09,0.465-0.256,0.914-0.314,1.388
		c-0.004,0.037-0.018,0.058-0.055,0.077c-0.109,0.055-0.072,0.165-0.066,0.248c0.006,0.091,0.102,0.048,0.156,0.056
		c0.385,0.055,0.773,0.103,1.158,0.155c0.816,0.11,1.633,0.222,2.449,0.336c0.268,0.038,0.537,0.083,0.803,0.134
		c0.371,0.07,0.74,0.15,1.115,0.174c0.451,0.028,0.898,0.021,1.344-0.089c0.354-0.087,0.688-0.19,0.963-0.434
		c0.135-0.121,0.221-0.278,0.32-0.427c0.193-0.278,0.248-0.574,0.193-0.877c-0.057-0.33-0.143-0.656-0.189-0.987
		c-0.057-0.42-0.125-0.845-0.121-1.267c0.002-0.56,0.025-1.122,0.275-1.652c0.174-0.371,0.449-0.597,0.824-0.705
		c0.391-0.111,0.789-0.214,1.199-0.232c0.412-0.019,0.82-0.022,1.229,0.077c0.574,0.14,1.078,0.406,1.506,0.805
		c0.307,0.285,0.551,0.606,0.465,1.077c-0.053,0.295-0.061,0.598-0.088,0.895c-0.047,0.486-0.115,0.967-0.197,1.444
		c-0.043,0.247-0.082,0.497-0.141,0.743c-0.07,0.298-0.229,0.566-0.17,0.91c0.066,0.391,0.287,0.641,0.576,0.836
		c0.338,0.228,0.73,0.354,1.129,0.437c0.656,0.135,1.324,0.191,1.994,0.172c0.4-0.012,0.797-0.063,1.195-0.104
		c0.658-0.065,1.314-0.136,1.971-0.203c0.488-0.052,0.975-0.104,1.463-0.151c0.074-0.006,0.084-0.041,0.086-0.099
		c0.002-0.215,0.025-0.433,0.002-0.645c-0.031-0.237-0.021-0.475-0.012-0.709c0.01-0.226-0.086-0.438-0.047-0.665
		c0.051-0.299-0.029-0.596-0.029-0.897c0.002-0.233-0.039-0.475-0.012-0.706c0.027-0.225-0.055-0.43-0.051-0.654
		c0.014-0.567-0.049-1.136-0.066-1.704c-0.016-0.517-0.012-1.033,0.139-1.534c0.049-0.168,0.105-0.35,0.213-0.482
		c0.248-0.309,0.586-0.481,0.992-0.475C532.967,949.543,533.172,949.586,533.379,949.609z"/>
	<path fill="#00ADEF" d="M676.506,697.644c-0.412,0.512-0.92,0.875-1.582,1.018c-0.691,0.147-1.314-0.085-1.947-0.284
		c-0.402-0.126-0.705-0.44-1.072-0.618c-0.654-0.311-1.199-0.783-1.822-1.141c-0.438-0.251-0.846-0.548-1.273-0.814
		c-0.338-0.21-0.639-0.238-0.99,0.065c-0.514,0.44-0.848,1.015-1.17,1.588c-0.266,0.473-0.447,0.995-0.684,1.538
		c-0.471,0.935-0.822,1.969-1.186,2.994c-0.5,1.409-0.895,2.854-1.336,4.281c-0.133,0.423-0.096,0.521,0.332,0.591
		c0.482,0.078,0.939,0.252,1.418,0.351c0.676,0.141,1.352,0.323,2.012,0.533c0.865,0.276,1.744,0.533,2.561,0.95
		c0.201,0.103,0.449,0.081,0.631,0.224c0.309,0.24,0.676,0.384,1.01,0.579c0.594,0.35,1.146,0.729,1.57,1.271l1.861,1.092
		c0.43-0.648,0.729-1.36,1.012-2.082c0.367-0.942,0.643-1.925,1.154-2.805c0.33-0.563,0.727-1.077,1.385-1.296
		c0.572-0.19,1.137-0.096,1.691,0.061c0.818,0.229,1.553,0.647,2.252,1.105c0.449,0.297,0.854,0.694,1.08,1.19
		c0.205,0.447,0.24,0.936,0.135,1.447c-0.123,0.596-0.414,1.1-0.697,1.616c-0.279,0.516-0.637,0.979-0.912,1.5
		c-0.115,0.219-0.289,0.438-0.492,0.619c-0.143,0.128-0.182,0.342-0.277,0.513c-0.107,0.19-0.23,0.372-0.352,0.551
		c-0.094,0.142-0.111,0.276-0.096,0.41c0.088-0.039,0.174-0.086,0.277-0.103c0.723-0.117,1.385,0.116,2.059,0.293
		c0.572,0.151,1.125,0.363,1.676,0.586c1.012,0.409,2.004,0.864,2.98,1.352c0.688,0.345,1.344,0.752,2.004,1.15
		c0.275,0.164,0.559,0.319,0.803,0.549c0.152,0.141,0.314,0.294,0.506,0.396c0.113,0.06,0.215,0.126,0.313-0.041
		c0.277-0.464,0.584-0.913,0.855-1.381c0.369-0.637,0.715-1.288,1.08-1.924c0.42-0.728,0.793-1.476,1.16-2.227
		c0.643-1.308,1.154-2.675,1.367-4.13c0.08-0.545,0.072-1.109-0.223-1.606c-0.105-0.179-0.166-0.415-0.438-0.459
		c-0.402-0.065-0.805-0.139-1.199-0.237c-0.453-0.114-0.904-0.236-1.344-0.398c-1.184-0.437-2.387-0.845-3.273-1.823
		c-0.375-0.414-0.557-0.915-0.457-1.437c0.109-0.576,0.199-1.157,0.375-1.727c0.258-0.831,0.633-1.57,1.221-2.209
		c0.439-0.478,0.996-0.748,1.6-0.908c0.496-0.13,0.988-0.027,1.471,0.146c0.807,0.289,1.592,0.634,2.367,0.996
		c0.273,0.127,0.555,0.242,0.807,0.403c0.594,0.382,1.199,0.748,1.717,1.237c0.152,0.145,0.359,0.134,0.529,0.009
		c0.346-0.257,0.598-0.614,0.785-0.986c0.5-0.988,0.914-2.016,1.289-3.059c0.33-0.912,0.686-1.817,1.041-2.721
		c0.492-1.245,0.969-2.498,1.459-3.746c0.096-0.249-0.076-0.497-0.34-0.469c-0.18,0.021-0.346-0.044-0.518-0.058
		c-0.305-0.023-0.613-0.041-0.914-0.139c-0.395-0.129-0.82-0.16-1.217-0.284c-0.363-0.114-0.734-0.203-1.1-0.284
		c-0.309-0.069-0.607-0.19-0.93-0.232c-0.447-0.06-0.875-0.246-1.32-0.321c-0.576-0.098-1.1-0.357-1.602-0.599
		c-0.426-0.206-0.846-0.5-1.262-0.758c-0.307-0.189-0.58-0.408-0.826-0.65c-0.178-0.006-0.357-0.009-0.537,0
		c-0.277,0.014-0.439,0.161-0.574,0.361c-0.441,0.655-0.742,1.378-1.027,2.109c-0.367,0.942-0.645,1.925-1.156,2.805
		c-0.328,0.563-0.725,1.077-1.385,1.296c-0.57,0.19-1.135,0.096-1.691-0.061c-0.818-0.229-1.551-0.647-2.252-1.105
		c-0.449-0.297-0.852-0.694-1.08-1.19c-0.205-0.447-0.24-0.936-0.133-1.447c0.123-0.596,0.412-1.1,0.695-1.616
		c0.279-0.516,0.637-0.979,0.912-1.5c0.115-0.219,0.289-0.438,0.494-0.619c0.143-0.128,0.18-0.342,0.275-0.513
		c0.107-0.19,0.23-0.372,0.354-0.551c0.164-0.25,0.105-0.478,0.014-0.721c-0.158-0.403-0.514-0.615-0.836-0.843l7.641,3.245
		c-0.094-0.115-0.203-0.218-0.281-0.343l-7.658-3.041c-0.176,0.027-0.355,0.151-0.518,0.125c-0.178-0.027-0.373-0.051-0.533-0.046
		c-0.479,0.013-0.914-0.132-1.342-0.29c-0.877-0.325-1.705-0.759-2.469-1.3c-0.631-0.445-1.32-0.795-1.971-1.209
		c-0.41-0.26-0.811-0.541-1.248-0.766c-0.26-0.134-0.52-0.293-0.766-0.466c-0.385-0.271-0.799-0.497-1.211-0.723
		c-0.105-0.059-0.156-0.008-0.221,0.079c-0.432,0.572-0.809,1.18-1.223,1.761c-0.514,0.719-0.896,1.508-1.287,2.286
		c-0.721,1.433-1.195,2.952-1.381,4.561c-0.059,0.529-0.033,1.048-0.021,1.57c0.004,0.084,0.064,0.11,0.109,0.154
		c0.33,0.3,0.709,0.523,1.109,0.707c0.777,0.352,1.561,0.688,2.381,0.94c0.414,0.129,0.807,0.333,1.211,0.496
		c0.719,0.292,1.354,0.692,1.836,1.319c0.271,0.354,0.412,0.758,0.447,1.179c0.07,0.922-0.328,1.741-0.682,2.555
		C677.256,696.655,676.895,697.164,676.506,697.644z"/>
</g>
</svg>
