<svg xmlns="http://www.w3.org/2000/svg" width="1230" height="510" fill="none"><path fill="#1B1B1B" d="M28.662 356.712H133.99V462.04H28.662ZM133.99 251.385h210.655v105.327H133.989ZM132.343 40.73h212.3v105.328L133.99 251.385H28.662V146.058Zm340 105.346h123.2v33.141H488.689v59.469H589.35v33.14H488.688v84.868h-38.717V168.288zm156.245 0h38.715v177.477H762.7v33.14H651.568l-22.98-22.211zM873.496 361.65q-30.353 0-55.131-14.248-24.467-14.246-38.717-39.336-14.246-25.087-14.246-56.681 0-30.663 13.936-55.751 13.94-25.4 38.407-39.956 24.779-14.558 55.751-14.558 30.355 0 55.134 14.248 24.777 14.246 39.025 39.336 14.25 25.089 14.248 56.681 0 30.665-13.938 56.06-13.939 25.092-38.715 39.647-24.78 14.558-55.754 14.558m0-35.31q19.825 0 35.62-9.603 15.797-9.6 24.468-26.635 8.984-17.036 8.982-38.717t-8.982-38.717q-8.671-17.034-24.469-26.635-15.797-9.602-35.619-9.604-19.82 0-35.619 9.604-15.797 9.6-24.777 26.635-8.674 17.034-8.674 38.717 0 21.68 8.674 38.717 8.982 17.034 24.777 26.635 15.8 9.604 35.62 9.604" style="fill:#fff;stroke-width:2.06524"/><path fill="#1B1B1B" fill-rule="evenodd" d="m1176.763 356.712-70.186-101.92.017-.024-21.208-30.716-.05.072-53.87-78.066H987.14l72.955 106.257-72.955 104.397h44.634l49.562-73.419 50.483 73.42zm-72.408-160.793 21.48 31.109 56.16-80.97h-44.02z" clip-rule="evenodd" style="fill:#fff;stroke-width:2.06524"/></svg>