<?xml version="1.0" encoding="UTF-8" standalone="no"?><svg
        width="158.496mm"
        height="137.262mm"
        viewBox="255.90551 103.81559 623.9999799999998 540.3998"
        version="1.1"
        xmlns:inkscape="http://www.inkscape.org/namespaces/inkscape"
        xmlns:sodipodi="http://sodipodi.sourceforge.net/DTD/sodipodi-0.dtd"
        xmlns:xlink="http://www.w3.org/1999/xlink"
        xmlns="http://www.w3.org/2000/svg"
        xmlns:svg="http://www.w3.org/2000/svg"><path d="M 411.90551 103.81561 L 446.57218 103.81561 498.57216 193.88249 602.57217 193.88249 550.57215 103.81561 619.90549 103.81561 654.57219 163.8602 689.23883 103.81561 723.90547 103.81561 741.23881 133.83793 689.23883 223.90481 741.23881 313.97117 793.2388 223.90481 827.9055 283.94885 793.2388 343.99346 862.57214 343.99346 879.90549 374.01575 862.57214 404.03803 758.57216 404.03803 706.57218 494.10438 810.57215 494.10438 775.90551 554.14902 706.57218 554.14902 741.23881 614.1936 723.90547 644.21539 689.23883 644.21539 637.23884 554.14902 533.23883 554.14902 585.23882 644.21539 515.90551 644.21539 481.23884 584.17131 446.57218 644.21539 411.90551 644.21539 394.57219 614.1936 446.57218 524.12673 394.57219 434.06033 342.5722 524.12673 307.90553 464.08212 342.5722 404.03803 273.23885 404.03803 255.90551 374.01575 273.23885 343.99346 377.23885 343.99346 429.23883 253.92656 325.23887 253.92656 359.90552 193.88249 429.23883 193.88249 394.57219 133.83791 411.90551 103.81559 " fill="none" stroke="green" stroke-width="2" id ="boardOutline" /><path d="M 706.57218 374.01575 L 637.23884 494.10437 498.57216 494.10437 429.23883 374.01575 498.57216 253.92655 637.23884 253.92655 706.57218 374.01575 " fill="none" stroke="green" stroke-width="2" id ="boardOutline" /><path d="M 684.856 167.41256 L 684.9624 167.01546 685.16795 166.65943 685.45865 166.36873 685.81468 166.16318 686.21178 166.05678 686.62288 166.05678 687.01998 166.16318 687.37601 166.36873 687.6667 166.65943 687.87226 167.01546 687.97866 167.41256 687.97866 167.82366 687.87226 168.22076 687.6667 168.57679 687.37601 168.86748 687.01998 169.07304 686.62288 169.17944 686.21178 169.17944 685.81468 169.07304 685.45865 168.86748 685.16795 168.57679 684.9624 168.22076 684.856 167.82366 684.856 167.41256 " fill="none" stroke="green" stroke-width="2" id ="boardOutline" /><path d="M 696.66702 167.41256 L 696.77342 167.01546 696.97898 166.65943 697.26967 166.36873 697.6257 166.16318 698.0228 166.05678 698.4339 166.05678 698.831 166.16318 699.18703 166.36873 699.47773 166.65943 699.68328 167.01546 699.78968 167.41256 699.78968 167.82366 699.68328 168.22076 699.47773 168.57679 699.18703 168.86748 698.831 169.07304 698.4339 169.17944 698.0228 169.17944 697.6257 169.07304 697.26967 168.86748 696.97898 168.57679 696.77342 168.22076 696.66702 167.82366 696.66702 167.41256 " fill="none" stroke="green" stroke-width="2" id ="boardOutline" /></svg>
